<svg width="30" height="30" viewBox="0 0 30 30" fill="none" xmlns="http://www.w3.org/2000/svg">
<path d="M25.0589 20.5904C23.5543 18.7488 22.4919 17.8113 22.4919 12.7342C22.4919 8.08475 20.1177 6.4283 18.1636 5.62381C17.9041 5.51717 17.6597 5.27225 17.5806 5.00565C17.2378 3.83904 16.2769 2.81131 14.9996 2.81131C13.7222 2.81131 12.7607 3.83963 12.4214 5.00682C12.3423 5.27635 12.098 5.51717 11.8384 5.62381C9.88198 6.42948 7.5101 8.08006 7.5101 12.7342C7.50717 17.8113 6.44487 18.7488 4.94018 20.5904C4.31674 21.3533 4.86284 22.4988 5.95327 22.4988H24.0517C25.1363 22.4988 25.6789 21.3498 25.0589 20.5904Z" stroke="black" stroke-width="1.00189" stroke-linecap="round" stroke-linejoin="round"/>
<path d="M18.7506 22.4988V23.4364C18.7506 24.4311 18.3554 25.3851 17.6521 26.0885C16.9487 26.7918 15.9947 27.187 15 27.187C14.0053 27.187 13.0514 26.7918 12.348 26.0885C11.6447 25.3851 11.2495 24.4311 11.2495 23.4364V22.4988" stroke="black" stroke-width="1.00189" stroke-linecap="round" stroke-linejoin="round"/>
</svg>
