<svg width="30" height="30" viewBox="0 0 30 30" fill="none" xmlns="http://www.w3.org/2000/svg">
<path d="M22.0331 8.43903C21.8034 11.5373 19.4546 14.0648 16.8762 14.0648C14.2977 14.0648 11.9448 11.5379 11.7192 8.43903C11.4848 5.21592 13.7702 2.81323 16.8762 2.81323C19.9821 2.81323 22.2676 5.27452 22.0331 8.43903Z" stroke="black" stroke-width="1.00189" stroke-linecap="round" stroke-linejoin="round"/>
<path d="M16.8756 17.8137C11.778 17.8137 6.60416 20.6262 5.64674 25.9348C5.52955 26.5747 5.89342 27.1887 6.56373 27.1887H27.1881C27.8584 27.1887 28.2206 26.5747 28.1051 25.9348C27.1471 20.6262 21.9733 17.8137 16.8756 17.8137Z" stroke="black" stroke-width="1.00189" stroke-miterlimit="10"/>
<path d="M5.15771 10.3149V16.8801" stroke="black" stroke-width="1.00189" stroke-linecap="round" stroke-linejoin="round"/>
<path d="M8.44262 13.5961H1.87744" stroke="black" stroke-width="1.00189" stroke-linecap="round" stroke-linejoin="round"/>
</svg>
