<svg width="30" height="30" viewBox="0 0 30 30" fill="none" xmlns="http://www.w3.org/2000/svg">
<path d="M15.1697 2.81211C8.31541 2.71953 2.71971 8.31523 2.81229 15.1695C2.9037 21.7432 8.25623 27.0957 14.8299 27.1871C21.6853 27.2809 27.2799 21.6852 27.1861 14.8309C27.0959 8.25605 21.7433 2.90351 15.1697 2.81211ZM22.5771 21.9869C22.5538 22.0122 22.5252 22.032 22.4933 22.0449C22.4615 22.0579 22.4272 22.0636 22.3929 22.0618C22.3585 22.0601 22.325 22.0507 22.2947 22.0345C22.2643 22.0184 22.238 21.9957 22.2174 21.9682C21.6933 21.2825 21.0515 20.6954 20.3219 20.2344C18.8301 19.277 16.9398 18.7496 14.9998 18.7496C13.0597 18.7496 11.1695 19.277 9.67772 20.2344C8.94815 20.6952 8.30633 21.2821 7.78221 21.9676C7.76162 21.9951 7.73523 22.0178 7.7049 22.034C7.67457 22.0502 7.64105 22.0595 7.60672 22.0613C7.57239 22.0631 7.53808 22.0573 7.50624 22.0443C7.47439 22.0314 7.44579 22.0116 7.42245 21.9863C5.70311 20.1303 4.72918 17.7051 4.68729 15.1754C4.59178 9.47363 9.27049 4.70117 14.9746 4.68711C20.6787 4.67304 25.3123 9.30488 25.3123 14.9996C25.3143 17.5903 24.3373 20.086 22.5771 21.9869Z" fill="black"/>
<path d="M14.9998 8.43895C13.8442 8.43895 12.7993 8.87202 12.0568 9.65905C11.3143 10.4461 10.9433 11.5343 11.0272 12.7023C11.1971 15.0024 12.9792 16.8777 14.9998 16.8777C17.0204 16.8777 18.799 15.0024 18.9724 12.7028C19.0592 11.546 18.6911 10.4678 17.9363 9.66608C17.1909 8.87495 16.1478 8.43895 14.9998 8.43895Z" fill="black"/>
</svg>
